<svg xmlns="http://www.w3.org/2000/svg" width="100" height="100" viewBox="0 0 100 100">
  <g id="그룹_3869" data-name="그룹 3869" transform="translate(-2086 -3399)">
    <g id="property_managment_x2C__city_x2C__buildings_x2C__business_offices_x2C__property_x2C__real_estate" transform="translate(2086 3399)">
      <g id="XMLID_3182_" transform="translate(30.732 0)">
        <g id="XMLID_3216_" transform="translate(0 16.976)">
          <path id="패스_2950" data-name="패스 2950" d="M11.7,39.953a1.7,1.7,0,0,1-1.7-1.7V7.7A1.7,1.7,0,0,1,11.7,6H32.069a1.7,1.7,0,0,1,0,3.4H13.4v28.86A1.7,1.7,0,0,1,11.7,39.953Z" transform="translate(-10 -6)" fill="#fff"/>
        </g>
        <g id="XMLID_3195_" transform="translate(20.372)">
          <g id="XMLID_3198_" transform="translate(6.791 16.976)">
            <g id="XMLID_3211_" transform="translate(0 33.953)">
              <path id="패스_2951" data-name="패스 2951" d="M43.465,19.4H19.7a1.7,1.7,0,0,1,0-3.4H43.465a1.7,1.7,0,0,1,0,3.4Z" transform="translate(-18 -16)" fill="#fff"/>
            </g>
            <g id="XMLID_3209_" transform="translate(0 27.162)">
              <path id="패스_2952" data-name="패스 2952" d="M48.558,17.4H19.7a1.7,1.7,0,0,1,0-3.4h28.86a1.7,1.7,0,0,1,0,3.4Z" transform="translate(-18 -14)" fill="#fff"/>
            </g>
            <g id="XMLID_3207_" transform="translate(0 20.372)">
              <path id="패스_2953" data-name="패스 2953" d="M50.255,15.4H19.7a1.7,1.7,0,0,1,0-3.4H50.255a1.7,1.7,0,0,1,0,3.4Z" transform="translate(-18 -12)" fill="#fff"/>
            </g>
            <g id="XMLID_3204_" transform="translate(0 13.581)">
              <path id="패스_2954" data-name="패스 2954" d="M50.255,13.4H19.7a1.7,1.7,0,0,1,0-3.4H50.255a1.7,1.7,0,0,1,0,3.4Z" transform="translate(-18 -10)" fill="#fff"/>
            </g>
            <g id="XMLID_3202_" transform="translate(0 0)">
              <path id="패스_2955" data-name="패스 2955" d="M50.255,9.4H19.7a1.7,1.7,0,0,1,0-3.4H50.255a1.7,1.7,0,0,1,0,3.4Z" transform="translate(-18 -6)" fill="#fff"/>
            </g>
            <g id="XMLID_3200_" transform="translate(0 6.791)">
              <path id="패스_2956" data-name="패스 2956" d="M50.255,11.4H19.7a1.7,1.7,0,0,1,0-3.4H50.255a1.7,1.7,0,0,1,0,3.4Z" transform="translate(-18 -8)" fill="#fff"/>
            </g>
          </g>
          <g id="그룹_3866" data-name="그룹 3866">
            <path id="패스_2957" data-name="패스 2957" d="M17.7,50.534a1.7,1.7,0,0,1-1.7-1.7V4.7A1.7,1.7,0,0,1,17.7,3H55.046a1.7,1.7,0,0,1,1.7,1.7V47.139a1.7,1.7,0,0,1-3.4,0V6.4H19.4V48.837A1.7,1.7,0,0,1,17.7,50.534Z" transform="translate(-16 3.791)" fill="#fff"/>
            <path id="패스_2958" data-name="패스 2958" d="M48.058,11.186a1.7,1.7,0,0,1-1.7-1.7V4.4H19.2a1.7,1.7,0,1,1,0-3.4h28.86a1.7,1.7,0,0,1,1.7,1.7V9.488A1.7,1.7,0,0,1,48.058,11.186Z" transform="translate(-12.407 -1)" fill="#fff"/>
          </g>
        </g>
        <g id="XMLID_3185_" transform="translate(6.791 23.767)">
          <circle id="XMLID_3194_" cx="1.698" cy="1.698" r="1.698" transform="translate(6.791)" fill="#fff"/>
          <circle id="XMLID_3193_" cx="1.698" cy="1.698" r="1.698" fill="#fff"/>
          <circle id="XMLID_3192_" cx="1.698" cy="1.698" r="1.698" transform="translate(0 6.791)" fill="#fff"/>
          <circle id="XMLID_3191_" cx="1.698" cy="1.698" r="1.698" transform="translate(0 13.581)" fill="#fff"/>
          <circle id="XMLID_3190_" cx="1.698" cy="1.698" r="1.698" transform="translate(0 20.372)" fill="#fff"/>
          <circle id="XMLID_3189_" cx="1.698" cy="1.698" r="1.698" transform="translate(6.791 6.791)" fill="#fff"/>
          <circle id="XMLID_3188_" cx="1.698" cy="1.698" r="1.698" transform="translate(6.791 13.581)" fill="#fff"/>
          <circle id="XMLID_3187_" cx="1.698" cy="1.698" r="1.698" transform="translate(6.791 20.372)" fill="#fff"/>
          <circle id="XMLID_3186_" cx="1.698" cy="1.698" r="1.698" transform="translate(6.791 27.162)" fill="#fff"/>
        </g>
      </g>
      <g id="profit_1_" transform="translate(17.66 53.626)">
        <g id="XMLID_3074_">
          <path id="패스_2959" data-name="패스 2959" d="M7.89,27.516a1.7,1.7,0,0,1-1.294-2.8l.839-.988A21.914,21.914,0,0,1,33.5,19.778a1.7,1.7,0,0,1-1.606,2.991A18.515,18.515,0,0,0,9.927,26.029l-.747.886a1.67,1.67,0,0,1-1.29.6Z" transform="translate(-6.193 -17.146)" fill="#fff"/>
          <path id="패스_2960" data-name="패스 2960" d="M40.333,31.581H15.225a1.7,1.7,0,1,1,0-3.4h23.3A7.915,7.915,0,0,0,37.4,25.069C35.841,22.631,32.8,21.4,28.358,21.4H15.673a1.7,1.7,0,1,1,0-3.4H28.361c5.67,0,9.677,1.762,11.9,5.236a12.185,12.185,0,0,1,1.769,6.648A1.7,1.7,0,0,1,40.333,31.581Z" transform="translate(11.373 -15.099)" fill="#fff"/>
        </g>
      </g>
      <g id="XMLID_2970_" transform="translate(0 55.587)">
        <g id="그룹_3867" data-name="그룹 3867" transform="translate(28.138)">
          <path id="패스_2961" data-name="패스 2961" d="M76.629,19.039c-3.3-1.806-8.047-1.423-13.449,1.107l-9.436,4.9-3.915.706a10.73,10.73,0,0,1,.754,3.314l4.02-.727a1.72,1.72,0,0,0,.482-.163l9.6-4.988c4.268-2,8.026-2.428,10.315-1.175a5.3,5.3,0,0,1,2.519,3.592L59.914,35.982l-18.141,5.1a23.485,23.485,0,0,1-6.349.876h-16.8a11.8,11.8,0,0,0-6.784,2.414L9.409,45.516a1.273,1.273,0,0,0-.173.129l2.519,2.523,1.725-.811a1.678,1.678,0,0,0,.394-.258,8.494,8.494,0,0,1,4.747-1.742h16.8a27,27,0,0,0,7.269-1l18.352-5.164a1.744,1.744,0,0,0,.4-.173L80.262,27.928a1.7,1.7,0,0,0,.822-1.684c-.557-4.244-2.726-6.261-4.455-7.2Z" transform="translate(-9.236 -17.919)" fill="#fff"/>
        </g>
        <path id="XMLID_2996_" d="M25.52,55.83a1.7,1.7,0,0,1-2.4-2.4l9.785-9.8L13.7,24.42l-9.778,9.8a1.7,1.7,0,0,1-2.4-2.4L12.34,20.984a1.969,1.969,0,0,1,2.614-.112L36.562,42.48a1.845,1.845,0,0,1-.214,2.509Z" transform="translate(-1.019 -11.912)" fill="#fff"/>
      </g>
      <g id="그룹_3868" data-name="그룹 3868" transform="translate(23.941 3.395)">
        <circle id="XMLID_3206_" cx="1.698" cy="1.698" r="1.698" transform="translate(0 10.186)" fill="#fff"/>
        <circle id="XMLID_3184_" cx="1.698" cy="1.698" r="1.698" transform="translate(0 23.267)" fill="#fff"/>
        <circle id="XMLID_3183_" cx="1.698" cy="1.698" r="1.698" transform="translate(0 16.619)" fill="#fff"/>
        <circle id="XMLID_2671_" cx="1.698" cy="1.698" r="1.698" transform="translate(71.301)" fill="#fff"/>
        <circle id="XMLID_3178_" cx="1.698" cy="1.698" r="1.698" transform="translate(71.301 13.581)" fill="#fff"/>
        <circle id="XMLID_2667_" cx="1.698" cy="1.698" r="1.698" transform="translate(71.301 6.791)" fill="#fff"/>
        <path id="패스_2962" data-name="패스 2962" d="M21.422,40.977H17.7a1.7,1.7,0,0,1,0-3.4h3.725A60.491,60.491,0,0,0,59.08,24.371,1.7,1.7,0,0,1,61.2,27.023,63.891,63.891,0,0,1,21.422,40.977Z" transform="translate(11.162 48.837)" fill="#fff"/>
        <circle id="XMLID_2381_" cx="1.698" cy="1.698" r="1.698" transform="translate(20.372 86.419)" fill="#fff"/>
      </g>
    </g>
  </g>
</svg>
