<svg xmlns="http://www.w3.org/2000/svg" xmlns:xlink="http://www.w3.org/1999/xlink" width="100" height="100" viewBox="0 0 100 100">
  <defs>
    <clipPath id="clip-path">
      <path id="path5992" d="M0-682.665H100v100H0Z" transform="translate(0 682.665)" fill="#fff"/>
    </clipPath>
  </defs>
  <g id="g5982" transform="translate(0 682.665)">
    <g id="g5984" transform="translate(19.89 -674.839)">
      <path id="path5986" d="M-45.139,0l3.158,4.161,4.933,1.718-2.98,4.294-.109,5.222-5-1.51-5,1.51-.11-5.222-2.98-4.294L-48.3,4.161Z" transform="translate(53.231)" fill="none" stroke="#fff" stroke-linecap="round" stroke-linejoin="round" stroke-width="4"/>
    </g>
    <g id="g5988" transform="translate(0 -682.665)">
      <g id="g5990" clip-path="url(#clip-path)">
        <g id="g5996" transform="translate(42.205 1.465)">
          <path id="path5998" d="M-45.432,0l3.044,4,4.754,1.661L-40.506,9.8l-.106,5.032-4.821-1.45-4.821,1.45L-50.358,9.8l-2.871-4.132L-48.481,4Z" transform="translate(53.229)" fill="none" stroke="#fff" stroke-linecap="round" stroke-linejoin="round" stroke-width="4"/>
        </g>
      </g>
    </g>
    <g id="g6000" transform="translate(63.932 -674.839)">
      <path id="path6002" d="M-45.139,0l3.159,4.161,4.933,1.718-2.98,4.294-.115,5.222-5-1.51-5,1.51-.115-5.222-2.974-4.294L-48.3,4.161Z" transform="translate(53.231)" fill="none" stroke="#fff" stroke-linecap="round" stroke-linejoin="round" stroke-width="4"/>
    </g>
    <g id="g6004" transform="translate(0 -682.665)">
      <g id="g6006" clip-path="url(#clip-path)">
        <g id="g6012" transform="translate(30.967 22.522)">
          <path id="path6014" d="M-189.319-189.324a19.039,19.039,0,0,1-26.919,0,19.04,19.04,0,0,1,0-26.92,19.039,19.039,0,0,1,26.919,0A19.03,19.03,0,0,1-189.319-189.324Z" transform="translate(221.811 221.817)" fill="none" stroke="#fff" stroke-linecap="round" stroke-linejoin="round" stroke-width="4"/>
        </g>
        <g id="g6016" transform="translate(42.261 31.911)">
          <path id="path6018" d="M-45.109,0a7.741,7.741,0,0,0-7.742,7.742,7.741,7.741,0,0,0,7.742,7.742,7.741,7.741,0,0,0,7.742-7.742A7.741,7.741,0,0,0-45.109,0Z" transform="translate(52.851)" fill="none" stroke="#fff" stroke-linecap="round" stroke-linejoin="round" stroke-width="4"/>
        </g>
        <g id="g6020" transform="translate(38.173 45.685)">
          <path id="path6022" d="M-137.853-62.812a11.868,11.868,0,0,0-6.976-10.78m-9.708,0a11.868,11.868,0,0,0-6.976,10.78" transform="translate(161.512 73.592)" fill="none" stroke="#fff" stroke-linecap="round" stroke-linejoin="round" stroke-width="4"/>
        </g>
        <g id="g6024" transform="translate(59.061 85.789)">
          <path id="path6026" d="M-104.877-74.267h9.386a1.832,1.832,0,0,0,1.827-1.827V-85.18a1.837,1.837,0,0,0-1.827-1.833H-121.05a1.837,1.837,0,0,0-1.827,1.833v9.086a1.832,1.832,0,0,0,1.827,1.827h9.391" transform="translate(122.877 87.013)" fill="none" stroke="#fff" stroke-linecap="round" stroke-linejoin="round" stroke-width="4"/>
        </g>
        <g id="g6028" transform="translate(63.843 54.647)">
          <path id="path6030" d="M-79.281-95.6c1.711-1.627,6.248-6.454,8.142-8.347,1.755-1.749,2.155-3.582,1.721-5.06-.794-2.716-4.432-4.215-7.686-1.755l-10.2,8.52c-4.121,3.438-4.443,6.315-4.832,11.441l-.75,9.936" transform="translate(92.888 112.012)" fill="none" stroke="#fff" stroke-linecap="round" stroke-linejoin="round" stroke-width="4"/>
        </g>
        <g id="g6032" transform="translate(81.948 31.475)">
          <path id="path6034" d="M0-316.471c7.475-6.892,13.229-15.44,14.018-27.792l1.394-21.993a4.269,4.269,0,0,0-3.982-4.521,4.273,4.273,0,0,0-4.521,3.982L5.471-344.168" transform="translate(0 370.785)" fill="none" stroke="#fff" stroke-linecap="round" stroke-linejoin="round" stroke-width="4"/>
        </g>
        <g id="g6036" transform="translate(81.309 35.174)">
          <path id="path6038" d="M-43.847-3.836a4.243,4.243,0,0,0-2-.65A4.277,4.277,0,0,0-50.372-.5l-.167,2.688L-51.372,15.3" transform="translate(51.372 4.495)" fill="none" stroke="#fff" stroke-linecap="round" stroke-linejoin="round" stroke-width="4"/>
        </g>
        <g id="g6040" transform="translate(11.171 35.174)">
          <path id="path6042" d="M0-3.836a4.223,4.223,0,0,1,2-.65A4.272,4.272,0,0,1,6.52-.5L7.525,15.3" transform="translate(0 4.495)" fill="none" stroke="#fff" stroke-linecap="round" stroke-linejoin="round" stroke-width="4"/>
        </g>
        <g id="g6044" transform="translate(2.632 31.475)">
          <path id="path6046" d="M-89.849-316.471c-7.475-6.892-13.229-15.44-14.012-27.792l-1.4-21.993a4.272,4.272,0,0,1,3.982-4.521,4.278,4.278,0,0,1,4.526,3.982l1.438,22.626" transform="translate(105.269 370.785)" fill="none" stroke="#fff" stroke-linecap="round" stroke-linejoin="round" stroke-width="4"/>
        </g>
        <g id="g6048" transform="translate(12.528 54.648)">
          <path id="path6050" d="M-137.715-181.45l-.75-9.936c-.389-5.126-.716-8-4.832-11.441l-10.2-8.52c-5.021-3.793-10.952,1.833-5.97,6.814,1.9,1.894,6.437,6.72,8.147,8.348" transform="translate(161.35 212.592)" fill="none" stroke="#fff" stroke-linecap="round" stroke-linejoin="round" stroke-width="4"/>
        </g>
        <g id="g6052" transform="translate(11.732 85.789)">
          <path id="path6054" d="M-104.877-74.267h9.386a1.832,1.832,0,0,0,1.827-1.827V-85.18a1.837,1.837,0,0,0-1.827-1.833H-121.05a1.837,1.837,0,0,0-1.827,1.833v9.086a1.832,1.832,0,0,0,1.827,1.827h9.386" transform="translate(122.877 87.013)" fill="none" stroke="#fff" stroke-linecap="round" stroke-linejoin="round" stroke-width="4"/>
        </g>
      </g>
    </g>
  </g>
</svg>
