<svg xmlns="http://www.w3.org/2000/svg" width="100" height="100" viewBox="0 0 100 100">
  <g id="layer1" transform="translate(-0.529 -0.529)">
    <path id="path2951" d="M50.529.529a8.333,8.333,0,0,0-6.761,13.21,12.611,12.611,0,0,0-4.906,10.13v1.66a5,5,0,0,0,5,5c4.581,0,9.083.005,13.34,0a5,5,0,0,0,5-5v-1.66a12.611,12.611,0,0,0-4.906-10.13A8.333,8.333,0,0,0,50.529.529Zm0,3.333a5,5,0,1,1-5,4.993A5,5,0,0,1,50.529,3.862ZM46.294,16.037a8.3,8.3,0,0,0,8.47,0,9.223,9.223,0,0,1,4.1,7.832v1.66A1.657,1.657,0,0,1,57.2,27.2c-4.582,0-9.081.008-13.34,0A1.657,1.657,0,0,1,42.2,25.529v-1.66a9.222,9.222,0,0,1,4.1-7.832ZM31.3,21.9A41.657,41.657,0,0,0,10.728,46.532a1.669,1.669,0,0,0,3.187,1A38.34,38.34,0,0,1,32.837,24.852,1.664,1.664,0,1,0,31.3,21.9Zm36.921,2.953A38.333,38.333,0,0,1,87.144,47.515a1.668,1.668,0,1,0,3.187-.983A41.671,41.671,0,0,0,69.761,21.9a1.58,1.58,0,0,0-.947-.182,1.664,1.664,0,0,0-.592,3.135ZM33.859,40.526a6.669,6.669,0,0,0-6.67,6.67v25a1.667,1.667,0,0,0,2.855,1.182L36.2,67.2h1a6.668,6.668,0,0,0,6.663,6.667h21l6.149,6.175a1.667,1.667,0,0,0,2.855-1.182v-25a6.667,6.667,0,0,0-6.667-6.67h-3.33A6.671,6.671,0,0,0,57.2,40.526Zm0,3.337H57.2A3.322,3.322,0,0,1,60.533,47.2V60.532A3.331,3.331,0,0,1,57.2,63.866H35.506a1.66,1.66,0,0,0-1.178.492l-3.8,3.815V47.2a3.327,3.327,0,0,1,3.333-3.333Zm30.007,6.667H67.2a3.327,3.327,0,0,1,3.333,3.333V74.839l-3.8-3.815a1.667,1.667,0,0,0-1.182-.492H43.856a3.325,3.325,0,0,1-3.327-3.33H57.2a6.671,6.671,0,0,0,6.667-6.67ZM12.2,52.193A8.333,8.333,0,0,0,5.435,65.4,12.611,12.611,0,0,0,.529,75.532v1.66a5,5,0,0,0,5,5c4.581,0,9.083.005,13.34,0a5,5,0,0,0,5-5v-1.66A12.611,12.611,0,0,0,18.957,65.4,8.333,8.333,0,0,0,12.2,52.193Zm76.667,0A8.333,8.333,0,0,0,82.1,65.4,12.611,12.611,0,0,0,77.2,75.532v1.66a5,5,0,0,0,5,5c4.581,0,9.083.005,13.34,0a5,5,0,0,0,5-5v-1.66A12.611,12.611,0,0,0,95.624,65.4a8.333,8.333,0,0,0-6.761-13.21ZM37.2,53.863A1.667,1.667,0,1,0,38.862,52.2,1.667,1.667,0,0,0,37.2,53.863Zm6.667,0A1.667,1.667,0,1,0,45.529,52.2,1.667,1.667,0,0,0,43.862,53.863Zm6.667,0A1.667,1.667,0,1,0,52.2,52.2,1.667,1.667,0,0,0,50.529,53.863ZM12.2,55.526a5,5,0,1,1-5,4.993,5,5,0,0,1,5-4.993Zm76.667,0a5,5,0,1,1-5,4.993,5,5,0,0,1,5-4.993ZM7.961,67.7a8.3,8.3,0,0,0,8.47,0,9.223,9.223,0,0,1,4.1,7.832v1.66a1.657,1.657,0,0,1-1.663,1.667c-4.582,0-9.081.008-13.34,0a1.657,1.657,0,0,1-1.663-1.667v-1.66a9.222,9.222,0,0,1,4.1-7.832Zm76.667,0a8.3,8.3,0,0,0,8.47,0,9.222,9.222,0,0,1,4.1,7.832v1.66a1.657,1.657,0,0,1-1.663,1.667c-4.582,0-9.081.008-13.34,0a1.657,1.657,0,0,1-1.663-1.667v-1.66A9.222,9.222,0,0,1,84.627,67.7ZM22.2,89.419a41.676,41.676,0,0,0,56.608.049,1.666,1.666,0,1,0-2.259-2.448,38.347,38.347,0,0,1-52.087-.049A1.667,1.667,0,1,0,22.2,89.419Z" transform="translate(0 0)" fill="#fff"/>
  </g>
</svg>
