<svg xmlns="http://www.w3.org/2000/svg" width="128.616" height="120.728" viewBox="0 0 128.616 120.728">
  <g id="그룹_3853" data-name="그룹 3853" transform="translate(-765.818 -4500.8)" opacity="0.6">
    <path id="패스_2926" data-name="패스 2926" d="M244.768,35.681a3.768,3.768,0,0,0,3.768-3.768V19.468a3.768,3.768,0,1,0-7.536,0V31.913A3.768,3.768,0,0,0,244.768,35.681Z" transform="translate(585.358 4485.1)" fill="#fff"/>
    <path id="패스_2927" data-name="패스 2927" d="M314.768,68.284a3.755,3.755,0,0,0,2.664-1.1L327.48,57.132a3.768,3.768,0,0,0-5.329-5.329L312.1,61.852a3.768,3.768,0,0,0,2.664,6.433Z" transform="translate(532.943 4458.892)" fill="#fff"/>
    <path id="패스_2928" data-name="패스 2928" d="M142.152,67.182a3.768,3.768,0,0,0,5.329-5.329L137.432,51.8a3.768,3.768,0,1,0-5.329,5.329Z" transform="translate(667.726 4458.891)" fill="#fff"/>
    <path id="패스_2929" data-name="패스 2929" d="M98.152,170.945,83.525,156.318A15.072,15.072,0,0,0,72.867,151.9H49.988a21.212,21.212,0,0,0-15.1,6.254l-1.2,1.2-.078.078H3.768A3.768,3.768,0,0,0,0,163.207V203.4a3.768,3.768,0,0,0,3.768,3.768H22.555l8.945,8.944a3.768,3.768,0,0,0,2.664,1.1h3.412a15.842,15.842,0,0,1-2.394-6.424,16.019,16.019,0,0,1-5.33-27.5l14.322-12.017h28.6a3.768,3.768,0,0,1,2.665,1.1L85.953,182.9a8.681,8.681,0,0,0,12.3.015A8.55,8.55,0,0,0,98.152,170.945Z" transform="translate(765.818 4383.111)" fill="#fff"/>
    <path id="패스_2930" data-name="패스 2930" d="M220.016,216.671a3.768,3.768,0,0,0-3.768-3.768H196.286a16.075,16.075,0,0,1-24.14,21.126l-9.537-9.538h-25l-2.96,2.484L125.091,235a8.478,8.478,0,0,0,10.9,12.989,8.478,8.478,0,0,0,10.9,12.989,8.478,8.478,0,0,0,10.9,12.989l6.673-5.6-.9.755a8.478,8.478,0,0,0,10.9,12.989l25.6-21.478h16.191a3.768,3.768,0,0,0,3.768-3.768Z" transform="translate(674.418 4337.435)" fill="#fff"/>
  </g>
</svg>
