<svg xmlns="http://www.w3.org/2000/svg" width="346.501" height="325.249" viewBox="0 0 346.501 325.249">
  <g id="free-icon-deal-2195379" transform="translate(0 -15.7)">
    <path id="패스_2926" data-name="패스 2926" d="M251.151,69.53A10.152,10.152,0,0,0,261.3,59.379V25.851a10.151,10.151,0,1,0-20.3,0V59.379A10.152,10.152,0,0,0,251.151,69.53Z" transform="translate(-77.901)" fill="#3fa9f5"/>
    <path id="패스_2927" data-name="패스 2927" d="M321.151,98.073a10.118,10.118,0,0,0,7.178-2.974l27.07-27.07a10.151,10.151,0,0,0-14.356-14.356l-27.07,27.07a10.152,10.152,0,0,0,7.178,17.33Z" transform="translate(-100.528 -11.314)" fill="#3fa9f5"/>
    <path id="패스_2928" data-name="패스 2928" d="M161.044,95.1A10.151,10.151,0,0,0,175.4,80.744l-27.07-27.07A10.151,10.151,0,0,0,133.973,68.03Z" transform="translate(-42.344 -11.314)" fill="#3fa9f5"/>
    <path id="패스_2929" data-name="패스 2929" d="M264.43,203.2,225.024,163.8A40.606,40.606,0,0,0,196.31,151.9H134.672A57.148,57.148,0,0,0,94,168.752L90.751,172l-.21.21H10.151A10.152,10.152,0,0,0,0,182.356V290.638a10.152,10.152,0,0,0,10.151,10.151H60.764l24.1,24.1a10.151,10.151,0,0,0,7.178,2.974h9.192a42.68,42.68,0,0,1-6.45-17.306,43.155,43.155,0,0,1-14.36-74.077L119,204.1h77.038a10.15,10.15,0,0,1,7.178,2.974l28.343,28.343c9.1,9.1,24.2,9.3,33.144.041A23.035,23.035,0,0,0,264.43,203.2Z" transform="translate(0 -44.026)" fill="#3fa9f5"/>
    <path id="패스_2930" data-name="패스 2930" d="M385.956,223.054A10.15,10.15,0,0,0,375.8,212.9H322.025a43.308,43.308,0,0,1-65.036,56.915l-25.695-25.7H163.95l-7.974,6.691-25.754,21.61a22.841,22.841,0,1,0,29.363,34.994,22.841,22.841,0,1,0,29.363,34.994,22.841,22.841,0,0,0,29.363,34.994l17.978-15.086-2.425,2.035a22.841,22.841,0,1,0,29.363,34.994l68.958-57.863h43.62a10.151,10.151,0,0,0,10.151-10.151Z" transform="translate(-39.456 -63.744)" fill="#3fa9f5"/>
  </g>
</svg>
